PathFileType	4	(X/Y/Z)	 0.11m3min.trc
DataRate	CameraRate	NumFrames	NumMarkers	Units	OrigDataRate	OrigDataStartFrame	OrigNumFrames
200	200	9	43	m	200	876	1000
Frame#	Time	C7			LSH			RSH			MAN			RASI			LASI			HIPR			HIPL			RPSI			LPSI			COX			RTHI1			RTHI2			RTHI3			RTHI4			RLKN			RMKN			RSHA1			RSHA2			RSHA3			RSHA4			RLMAL			RMMAL			RHEEL			RMET5			RMET1			RTOE			LTHI1			LTHI2			LTHI3			LTHI4			LLKN			LMKN			LSHA1			LSHA2			LSHA3			LSHA4			LLMAL			LMMAL			LHEEL			LMET5			LMET1			LTOE			
		X1	Y1	Z1	X2	Y2	Z2	X3	Y3	Z3	X4	Y4	Z4	X5	Y5	Z5	X6	Y6	Z6	X7	Y7	Z7	X8	Y8	Z8	X9	Y9	Z9	X10	Y10	Z10	X11	Y11	Z11	X12	Y12	Z12	X13	Y13	Z13	X14	Y14	Z14	X15	Y15	Z15	X16	Y16	Z16	X17	Y17	Z17	X18	Y18	Z18	X19	Y19	Z19	X20	Y20	Z20	X21	Y21	Z21	X22	Y22	Z22	X23	Y23	Z23	X24	Y24	Z24	X25	Y25	Z25	X26	Y26	Z26	X27	Y27	Z27	X28	Y28	Z28	X29	Y29	Z29	X30	Y30	Z30	X31	Y31	Z31	X32	Y32	Z32	X33	Y33	Z33	X34	Y34	Z34	X35	Y35	Z35	X36	Y36	Z36	X37	Y37	Z37	X38	Y38	Z38	X39	Y39	Z39	X40	Y40	Z40	X41	Y41	Z41	X42	Y42	Z42	X43	Y43	Z43	
876	4.3800	-0.309892	1.321384	-0.537166	-0.219678	1.307262	-0.692056	-0.246415	1.297527	-0.370691	-0.184068	1.265844	-0.527404	-0.173435	0.833695	-0.413527	-0.173459	0.831456	-0.655937	-0.221767	0.897008	-0.388216	-0.209071	0.891404	-0.677690	-0.345088	0.864949	-0.499126	-0.344804	0.863185	-0.571328	-0.341733	0.871154	-0.533605	-0.273491	0.658452	-0.353268	-0.249347	0.603957	-0.346002	-0.189592	0.627080	-0.337669	-0.205799	0.686190	-0.344483	-0.195046	0.405236	-0.355445	-0.181593	0.391659	-0.471986	-0.307785	0.263215	-0.350793	-0.325718	0.224341	-0.364259	-0.267443	0.202727	-0.361682	-0.257338	0.240556	-0.351154	-0.350443	0.090819	-0.385725	-0.328624	0.095607	-0.462784	-0.404430	0.083470	-0.426998	-0.259257	0.030280	-0.357584	-0.216893	0.042044	-0.426598	-0.194226	0.033510	-0.423117	-0.271243	0.673923	-0.722837	-0.246678	0.618397	-0.734073	-0.184784	0.639114	-0.732794	-0.201908	0.695735	-0.722645	-0.215753	0.407810	-0.738612	-0.194018	0.390770	-0.622568	-0.334036	0.275567	-0.753001	-0.347969	0.238083	-0.748481	-0.290038	0.218898	-0.749419	-0.280086	0.259847	-0.758050	-0.370454	0.106584	-0.737018	-0.365293	0.111156	-0.657789	-0.433742	0.105308	-0.701743	-0.290511	0.034733	-0.748108	-0.253074	0.040740	-0.672679	-0.236214	0.034988	-0.674474	
877	4.3850	-0.309413	1.320858	-0.537185	-0.219354	1.305688	-0.692317	-0.246099	1.295982	-0.370457	-0.183552	1.264576	-0.527339	-0.173733	0.832618	-0.412904	-0.173632	0.830474	-0.656139	-0.222312	0.895879	-0.387847	-0.209321	0.890046	-0.677878	-0.345358	0.864414	-0.499304	-0.344962	0.862659	-0.571354	-0.342015	0.870489	-0.533691	-0.274557	0.657926	-0.353433	-0.250515	0.603351	-0.346339	-0.190725	0.626306	-0.337756	-0.206809	0.685499	-0.344379	-0.196569	0.404453	-0.355826	-0.182882	0.391391	-0.472287	-0.308973	0.262289	-0.351747	-0.326682	0.223357	-0.365336	-0.268392	0.201914	-0.362287	-0.258463	0.239784	-0.351782	-0.350989	0.089845	-0.386668	-0.328775	0.094568	-0.463622	-0.404792	0.082213	-0.428260	-0.259454	0.030292	-0.357780	-0.216836	0.042042	-0.426632	-0.194072	0.033501	-0.422889	-0.272027	0.673779	-0.722831	-0.247589	0.618201	-0.734112	-0.185647	0.638781	-0.732923	-0.202647	0.695442	-0.722746	-0.217572	0.406974	-0.738864	-0.196215	0.390758	-0.622856	-0.335526	0.274343	-0.752544	-0.349227	0.236768	-0.748063	-0.291198	0.217936	-0.749313	-0.281509	0.258940	-0.757908	-0.371242	0.105685	-0.736481	-0.365739	0.110291	-0.657240	-0.434421	0.104144	-0.700894	-0.290800	0.034629	-0.748095	-0.253069	0.040739	-0.672735	-0.236126	0.034982	-0.674587	
878	4.3900	-0.308952	1.321073	-0.537195	-0.219132	1.304939	-0.692532	-0.245816	1.295278	-0.370281	-0.183103	1.264153	-0.527279	-0.173959	0.832744	-0.412454	-0.173766	0.830632	-0.656180	-0.222619	0.896081	-0.387692	-0.209420	0.890162	-0.677853	-0.345382	0.865163	-0.499421	-0.344849	0.863453	-0.571297	-0.342095	0.871005	-0.533725	-0.275581	0.658112	-0.353733	-0.251682	0.603452	-0.346746	-0.191845	0.626210	-0.337915	-0.207761	0.685477	-0.344413	-0.198400	0.404381	-0.356343	-0.184103	0.391524	-0.472622	-0.310366	0.261972	-0.352823	-0.327738	0.222928	-0.366540	-0.269416	0.201725	-0.362873	-0.259744	0.239677	-0.352401	-0.351350	0.089336	-0.387571	-0.328713	0.093903	-0.464367	-0.404919	0.081488	-0.429470	-0.259583	0.030343	-0.357973	-0.216684	0.042009	-0.426660	-0.193873	0.033501	-0.422684	-0.272810	0.674324	-0.722638	-0.248537	0.618698	-0.734062	-0.186541	0.639135	-0.733066	-0.203384	0.695829	-0.722787	-0.219460	0.406897	-0.738956	-0.198404	0.391495	-0.622984	-0.336983	0.273929	-0.751789	-0.350438	0.236272	-0.747345	-0.292312	0.217794	-0.749102	-0.282926	0.258856	-0.757652	-0.371733	0.105317	-0.735842	-0.365810	0.109907	-0.656632	-0.434742	0.103586	-0.699908	-0.291037	0.034584	-0.747985	-0.252986	0.040746	-0.672770	-0.235995	0.034976	-0.674699	
879	4.3950	-0.308534	1.322021	-0.537193	-0.218999	1.305042	-0.692727	-0.245585	1.295430	-0.370132	-0.182734	1.264613	-0.527228	-0.174089	0.833999	-0.412209	-0.173845	0.831853	-0.656061	-0.222697	0.897474	-0.387710	-0.209364	0.891649	-0.677637	-0.345230	0.866893	-0.499466	-0.344563	0.865249	-0.571180	-0.342005	0.872496	-0.533707	-0.276544	0.659020	-0.354158	-0.252833	0.604259	-0.347230	-0.192948	0.626800	-0.338135	-0.208649	0.686139	-0.344559	-0.200472	0.405037	-0.356979	-0.185247	0.392068	-0.472994	-0.311890	0.262242	-0.353956	-0.328847	0.223057	-0.367798	-0.270473	0.202163	-0.363420	-0.261125	0.240219	-0.353003	-0.351527	0.089289	-0.388380	-0.328506	0.093633	-0.464961	-0.404831	0.081299	-0.430528	-0.259662	0.030427	-0.358193	-0.216556	0.041950	-0.426754	-0.193679	0.033497	-0.422524	-0.273619	0.675526	-0.722305	-0.249546	0.619847	-0.733914	-0.187486	0.640130	-0.733202	-0.204140	0.696858	-0.722785	-0.221352	0.407654	-0.738874	-0.200436	0.392911	-0.622930	-0.338376	0.274304	-0.750835	-0.351590	0.236581	-0.746420	-0.293371	0.218445	-0.748794	-0.284301	0.259555	-0.757306	-0.371939	0.105452	-0.735175	-0.365557	0.109957	-0.656026	-0.434726	0.103611	-0.698873	-0.291196	0.034590	-0.747819	-0.252854	0.040742	-0.672804	-0.235822	0.034974	-0.674803	
880	4.4000	-0.308188	1.323699	-0.537176	-0.218957	1.306009	-0.692912	-0.245422	1.296439	-0.369988	-0.182449	1.265957	-0.527187	-0.174103	0.836251	-0.412158	-0.173864	0.834025	-0.655820	-0.222581	0.899854	-0.387836	-0.209188	0.894282	-0.677277	-0.344977	0.869304	-0.499431	-0.344209	0.867736	-0.571032	-0.341787	0.874760	-0.533633	-0.277425	0.660646	-0.354739	-0.253980	0.605776	-0.347776	-0.194039	0.628063	-0.338395	-0.209479	0.687475	-0.344785	-0.202708	0.406423	-0.357705	-0.186340	0.393080	-0.473414	-0.313501	0.263084	-0.355043	-0.329979	0.223720	-0.369021	-0.271541	0.203208	-0.363925	-0.262553	0.241391	-0.353592	-0.351523	0.089701	-0.389015	-0.328200	0.093759	-0.465373	-0.404545	0.081643	-0.431372	-0.259694	0.030548	-0.358433	-0.216382	0.041894	-0.426836	-0.193501	0.033502	-0.422416	-0.274483	0.677385	-0.721862	-0.250638	0.621649	-0.733668	-0.188509	0.641760	-0.733300	-0.204952	0.698524	-0.722735	-0.223189	0.409258	-0.738616	-0.202195	0.394965	-0.622688	-0.339697	0.275406	-0.749779	-0.352673	0.237629	-0.745389	-0.294373	0.219829	-0.748411	-0.285615	0.260985	-0.756899	-0.371873	0.106064	-0.734554	-0.365033	0.110397	-0.655489	-0.434385	0.104203	-0.697893	-0.291279	0.034645	-0.747602	-0.252683	0.040723	-0.672819	-0.235633	0.034964	-0.674881	
881	4.4050	-0.307937	1.326084	-0.537144	-0.218992	1.307836	-0.693079	-0.245329	1.298312	-0.369838	-0.182238	1.268165	-0.527151	-0.173998	0.839338	-0.412244	-0.173826	0.837031	-0.655515	-0.222322	0.902998	-0.388008	-0.208949	0.897796	-0.676842	-0.344671	0.872193	-0.499322	-0.343860	0.870686	-0.570886	-0.341477	0.877628	-0.533506	-0.278260	0.662993	-0.355404	-0.255131	0.607990	-0.348402	-0.195126	0.629977	-0.338688	-0.210250	0.689475	-0.345053	-0.205042	0.408519	-0.358488	-0.187444	0.394638	-0.473893	-0.315081	0.264403	-0.356174	-0.331115	0.224901	-0.370144	-0.272593	0.204831	-0.364384	-0.263991	0.243148	-0.354148	-0.351348	0.090548	-0.389455	-0.327836	0.094283	-0.465578	-0.404087	0.082516	-0.431980	-0.259699	0.030644	-0.358701	-0.216195	0.041835	-0.426913	-0.193341	0.033520	-0.422369	-0.275416	0.679927	-0.721313	-0.251825	0.624127	-0.733316	-0.189627	0.644048	-0.733345	-0.205825	0.700849	-0.722622	-0.224942	0.411661	-0.738203	-0.203636	0.397611	-0.622273	-0.340945	0.277132	-0.748708	-0.353668	0.239322	-0.744344	-0.295282	0.221874	-0.748009	-0.286857	0.263068	-0.756472	-0.371534	0.107143	-0.734040	-0.364269	0.111224	-0.655064	-0.433733	0.105326	-0.697049	-0.291241	0.034777	-0.747344	-0.252489	0.040715	-0.672814	-0.235445	0.034955	-0.674936	
882	4.4100	-0.307806	1.329140	-0.537106	-0.219087	1.310503	-0.693201	-0.245312	1.301032	-0.369678	-0.182111	1.271177	-0.527114	-0.173771	0.843093	-0.412410	-0.173733	0.840745	-0.655205	-0.221964	0.906718	-0.388169	-0.208692	0.901945	-0.676401	-0.344317	0.875481	-0.499152	-0.343541	0.874012	-0.570754	-0.341099	0.881016	-0.533339	-0.279058	0.666037	-0.356137	-0.256303	0.610880	-0.349086	-0.196222	0.632511	-0.339005	-0.210965	0.692107	-0.345341	-0.207420	0.411283	-0.359289	-0.188620	0.396823	-0.474444	-0.316619	0.266192	-0.357257	-0.332247	0.226556	-0.371116	-0.273615	0.206979	-0.364789	-0.265410	0.245440	-0.354646	-0.351033	0.091843	-0.389660	-0.327432	0.095202	-0.465561	-0.403450	0.083895	-0.432331	-0.259637	0.030787	-0.358951	-0.216007	0.041765	-0.426985	-0.193213	0.033528	-0.422381	-0.276406	0.683176	-0.720671	-0.253106	0.627297	-0.732860	-0.190835	0.646988	-0.733312	-0.206744	0.703840	-0.722443	-0.226651	0.414782	-0.737664	-0.204841	0.400801	-0.621719	-0.342116	0.279406	-0.747689	-0.354559	0.241557	-0.743368	-0.296072	0.224505	-0.747627	-0.288016	0.265750	-0.756062	-0.370920	0.108686	-0.733674	-0.363283	0.112454	-0.654794	-0.432778	0.106963	-0.696393	-0.291093	0.034980	-0.747084	-0.252286	0.040692	-0.672802	-0.235279	0.034962	-0.674960	
883	4.4150	-0.307792	1.332832	-0.537056	-0.219233	1.313971	-0.693247	-0.245342	1.304557	-0.369530	-0.182086	1.274936	-0.527071	-0.173432	0.847372	-0.412605	-0.173594	0.845052	-0.654935	-0.221537	0.910883	-0.388286	-0.208443	0.906544	-0.676000	-0.343877	0.879210	-0.498937	-0.343234	0.877743	-0.570630	-0.340647	0.884884	-0.533127	-0.279821	0.669749	-0.356908	-0.257502	0.614411	-0.349823	-0.197329	0.635619	-0.339360	-0.211640	0.695337	-0.345630	-0.209839	0.414658	-0.360061	-0.189976	0.399680	-0.475070	-0.318090	0.268392	-0.358279	-0.333335	0.228635	-0.371925	-0.274580	0.209636	-0.365106	-0.266812	0.248245	-0.355062	-0.350596	0.093568	-0.389629	-0.326879	0.096565	-0.465390	-0.402640	0.085763	-0.432439	-0.259508	0.030953	-0.359176	-0.215833	0.041716	-0.427075	-0.193128	0.033535	-0.422447	-0.277426	0.687130	-0.719954	-0.254453	0.631148	-0.732301	-0.192101	0.650570	-0.733194	-0.207682	0.707477	-0.722194	-0.228382	0.418539	-0.737046	-0.205897	0.404466	-0.621073	-0.343210	0.282152	-0.746776	-0.355320	0.244244	-0.742488	-0.296716	0.227666	-0.747289	-0.289084	0.268986	-0.755700	-0.370027	0.110667	-0.733473	-0.362093	0.114099	-0.654690	-0.431526	0.109075	-0.695951	-0.290826	0.035254	-0.746822	-0.252096	0.040634	-0.672788	-0.235150	0.034965	-0.674955	
884	4.4200	-0.307906	1.337088	-0.536981	-0.219432	1.318180	-0.693198	-0.245449	1.308835	-0.369422	-0.182147	1.279365	-0.527011	-0.172999	0.852061	-0.412799	-0.173421	0.849857	-0.654744	-0.221046	0.915419	-0.388354	-0.208221	0.911490	-0.675677	-0.343317	0.883456	-0.498686	-0.342890	0.881965	-0.570490	-0.340138	0.889229	-0.532875	-0.280566	0.674072	-0.357689	-0.258732	0.618534	-0.350579	-0.198446	0.639248	-0.339740	-0.212275	0.699109	-0.345917	-0.212311	0.418576	-0.360777	-0.191589	0.403215	-0.475772	-0.319502	0.270981	-0.359214	-0.334371	0.231132	-0.372541	-0.275485	0.212745	-0.365330	-0.268196	0.251521	-0.355315	-0.350048	0.095719	-0.389351	-0.326127	0.098360	-0.465085	-0.401656	0.088089	-0.432335	-0.259298	0.031149	-0.359378	-0.215610	0.041657	-0.427100	-0.193088	0.033548	-0.422551	-0.278441	0.691741	-0.719192	-0.255826	0.635635	-0.731675	-0.193386	0.654749	-0.732999	-0.208609	0.711718	-0.721898	-0.230198	0.422843	-0.736389	-0.206889	0.408557	-0.620390	-0.344212	0.285309	-0.745983	-0.355942	0.247315	-0.741722	-0.297198	0.231289	-0.747000	-0.290048	0.272700	-0.755390	-0.368859	0.113071	-0.733436	-0.360682	0.116178	-0.654762	-0.429973	0.111618	-0.695701	-0.290447	0.035610	-0.746550	-0.251917	0.040566	-0.672763	-0.235072	0.034964	-0.674933	
